<?xml version="1.0" encoding="UTF-8" standalone="no"?>
<svg
   xmlns:osb="http://www.openswatchbook.org/uri/2009/osb"
   xmlns:dc="http://purl.org/dc/elements/1.1/"
   xmlns:cc="http://creativecommons.org/ns#"
   xmlns:rdf="http://www.w3.org/1999/02/22-rdf-syntax-ns#"
   xmlns:svg="http://www.w3.org/2000/svg"
   xmlns="http://www.w3.org/2000/svg"
   xml:space="preserve"
   style="enable-background:new 0 0 612.017 612.017;"
   viewBox="0 0 612.017 612.017"
   height="612.017px"
   width="612.017px"
   y="0px"
   x="0px"
   id="Capa_1"
   version="1.1"><metadata
     id="metadata44"><rdf:RDF><cc:Work
         rdf:about=""><dc:format>image/svg+xml</dc:format><dc:type
           rdf:resource="http://purl.org/dc/dcmitype/StillImage" /><dc:title></dc:title></cc:Work></rdf:RDF></metadata><defs
     id="defs42"><linearGradient
       osb:paint="solid"
       id="linearGradient4513"><stop
         id="stop4515"
         offset="0"
         style="stop-color:#000000;stop-opacity:1;" /></linearGradient></defs><g
     id="g3"><g
       id="Saturn"><g
         transform="translate(140.03779,-41.49268)"
         id="g6"><g
           transform="matrix(1.1351349,0,0,1.1351349,-20.95662,-45.487742)"
           id="g4348"><path
             transform="matrix(0.88095256,0,0,0.88095256,-104.90486,76.625626)"
             id="rect4312-3"
             d="M 303.43359 33.712891 A 271.19176 272.29566 0 0 0 302.06641 33.78125 L 298.14648 33.78125 L 298.14648 33.978516 A 271.19176 272.29566 0 0 0 32.240234 306.00781 A 271.19176 272.29566 0 0 0 298.14648 578.11523 L 298.14648 578.13086 L 298.57422 578.13086 A 271.19176 272.29566 0 0 0 303.43359 578.30469 A 271.19176 272.29566 0 0 0 306.87109 578.13086 L 579.77734 578.13086 L 579.77734 33.78125 L 305.36523 33.78125 A 271.19176 272.29566 0 0 0 303.43359 33.712891 z M 311.34766 89.279297 C 313.17181 89.291891 314.99506 89.325641 316.81836 89.382812 C 369.6519 89.951231 420.57575 112.89296 459.40234 148.08789 C 459.88649 128.99691 460.12256 109.89932 460.99219 90.820312 L 523.42578 90.820312 C 524.20569 235.66658 524.87263 380.51311 525.65234 525.35938 L 458.2832 525.35938 L 458.2832 467.24609 C 433.93674 489.0353 405.08983 505.92406 373.89258 515.75391 C 302.54227 539.69836 220.28596 518.93757 165.25586 468.66016 C 103.85566 414.72563 79.379783 324.19276 102.33789 246.16016 C 126.48205 157.13687 213.67707 90.016517 305.875 89.298828 C 307.69896 89.274712 309.52351 89.266703 311.34766 89.279297 z M 309.72461 156.40039 C 276.23836 156.03067 242.4626 167.78274 216.99414 190.00977 C 185.15631 215.3331 163.73379 253.18647 160.08203 293.72266 C 153.18352 356.41189 193.03993 419.2997 249.81836 445.25195 C 299.3287 468.79404 360.60111 459.91507 403.42188 426.60742 C 428.87794 405.81634 451.34306 377.99131 457.14062 344.91016 C 458.29091 317.98084 459.71953 290.50568 455.93164 263.98828 C 439.35126 202.32565 377.98572 156.71025 314.43164 156.45508 C 313.94231 156.4544 313.4523 156.48903 312.96289 156.47461 C 311.88358 156.4374 310.80481 156.41232 309.72461 156.40039 z "
             style="opacity:1;fill-opacity:1;fill-rule:nonzero;stroke-width:18.40000007;stroke-miterlimit:4;stroke-dasharray:none;stroke:none;" /></g></g></g></g><g
     style=""
     id="g10" /><g
     style=""
     id="g12" /><g
     style=""
     id="g14" /><g
     style=""
     id="g16" /><g
     style=""
     id="g18" /><g
     style=""
     id="g20" /><g
     style=""
     id="g22" /><g
     style=""
     id="g24" /><g
     style=""
     id="g26" /><g
     style=""
     id="g28" /><g
     style=""
     id="g30" /><g
     style=""
     id="g32" /><g
     style=""
     id="g34" /><g
     style=""
     id="g36" /><g
     style=""
     id="g38" /></svg>