<?xml version="1.0" encoding="iso-8859-1"?>
<!-- Generator: Adobe Illustrator 16.0.0, SVG Export Plug-In . SVG Version: 6.00 Build 0)  -->
<!DOCTYPE svg PUBLIC "-//W3C//DTD SVG 1.1//EN" "http://www.w3.org/Graphics/SVG/1.1/DTD/svg11.dtd">
<svg version="1.1" id="Capa_1" xmlns="http://www.w3.org/2000/svg" xmlns:xlink="http://www.w3.org/1999/xlink" x="0px" y="0px"
	 width="425.817px" height="425.817px" viewBox="0 0 425.817 425.817" style="enable-background:new 0 0 425.817 425.817;"
	 xml:space="preserve">
<g>
	<path d="M422.265,82.647l0.312-0.768L217.84,0l-96.33,37.223l-0.618-0.266l-0.272,0.618L3.783,82.727l-0.686-0.271v0.525
		l-0.03,0.012l0.03,0.088v262.604l202.334,79.813v0.318h14.993v-0.318l202.325-79.813V82.461L422.265,82.647z M407.765,219.147
		l-85.103,31.197V138.052l85.103-33.573V219.147z M205.437,178.381v109.532l-86.669-31.351V144.184L205.437,178.381z
		 M128.816,132.049l87.098-36.212l81.084,36.229l-84.074,33.163L128.816,132.049z M220.424,178.381l87.254-34.422v111.882
		l-87.254,32.001V178.381z M316.509,124.363l-81.562-36.443l79.647-33.127l88.608,35.373L316.509,124.363z M217.658,16.098
		l77.018,30.742l-78.549,32.666l-75.314-33.652L217.658,16.098z M121.129,53.475l75.968,33.943l-88.304,36.721L24.488,90.884
		L121.129,53.475z M103.784,138.283v112.854l-85.688-30.985V104.479L103.784,138.283z M18.095,236.088l85.688,31.002v102.185
		l-85.688-33.792V236.088z M118.762,375.192V272.51l86.669,31.351v105.513L118.762,375.192z M220.424,303.813l87.254-32v103.143
		l-87.254,34.418V303.813z M322.668,369.044V266.315l85.097-31.208v100.376L322.668,369.044z"/>
</g>
<g>
</g>
<g>
</g>
<g>
</g>
<g>
</g>
<g>
</g>
<g>
</g>
<g>
</g>
<g>
</g>
<g>
</g>
<g>
</g>
<g>
</g>
<g>
</g>
<g>
</g>
<g>
</g>
<g>
</g>
</svg>
