<?xml version="1.0" encoding="iso-8859-1"?>
<!-- Generator: Adobe Illustrator 19.0.0, SVG Export Plug-In . SVG Version: 6.00 Build 0)  -->
<svg version="1.1" id="Layer_1" xmlns="http://www.w3.org/2000/svg" xmlns:xlink="http://www.w3.org/1999/xlink" x="0px" y="0px"
	 viewBox="0 0 512 512" style="enable-background:new 0 0 512 512;" xml:space="preserve">
<g transform="translate(1 1)">
	<g>
		<path d="M511,67.267C511,29.72,480.28-1,442.733-1s-68.267,30.72-68.267,68.267c0,34.492,25.93,63.202,59.256,67.649
			c-3.957,33.852-32.921,60.351-67.789,60.351H144.067c-46.933,0-85.333,38.4-85.333,85.333v94.423
			C25.178,379.258-1,408.077-1,442.733C-1,480.28,29.72,511,67.267,511s68.267-30.72,68.267-68.267
			c0-34.656-26.178-63.475-59.733-67.71V280.6c0-37.547,30.72-68.267,68.267-68.267h136.689
			c-20.782,15.602-34.289,40.433-34.289,68.267v94.423c-33.555,4.235-59.733,33.054-59.733,67.71
			C186.733,480.28,217.453,511,255,511c37.547,0,68.267-30.72,68.267-68.267c0-34.656-26.178-63.475-59.733-67.71V280.6
			c0-37.547,30.72-68.267,68.267-68.267h34.133c44.226,0,80.861-34.102,84.942-77.306C484.618,130.968,511,102.058,511,67.267z
			 M118.467,442.733c0,28.16-23.04,51.2-51.2,51.2c-28.16,0-51.2-23.04-51.2-51.2c0-28.16,23.04-51.2,51.2-51.2
			C95.427,391.533,118.467,414.573,118.467,442.733z M306.2,442.733c0,28.16-23.04,51.2-51.2,51.2c-28.16,0-51.2-23.04-51.2-51.2
			c0-28.16,23.04-51.2,51.2-51.2C283.16,391.533,306.2,414.573,306.2,442.733z M442.733,118.467c-28.16,0-51.2-23.04-51.2-51.2
			c0-28.16,23.04-51.2,51.2-51.2c28.16,0,51.2,23.04,51.2,51.2C493.933,95.427,470.893,118.467,442.733,118.467z"/>
	</g>
</g>
<g>
</g>
<g>
</g>
<g>
</g>
<g>
</g>
<g>
</g>
<g>
</g>
<g>
</g>
<g>
</g>
<g>
</g>
<g>
</g>
<g>
</g>
<g>
</g>
<g>
</g>
<g>
</g>
<g>
</g>
</svg>
