<?xml version="1.0" encoding="UTF-8" standalone="no"?>
<!-- Generator: Adobe Illustrator 17.1.0, SVG Export Plug-In . SVG Version: 6.00 Build 0)  -->

<svg
   xmlns:dc="http://purl.org/dc/elements/1.1/"
   xmlns:cc="http://creativecommons.org/ns#"
   xmlns:rdf="http://www.w3.org/1999/02/22-rdf-syntax-ns#"
   xmlns:svg="http://www.w3.org/2000/svg"
   xmlns="http://www.w3.org/2000/svg"
   xmlns:sodipodi="http://sodipodi.sourceforge.net/DTD/sodipodi-0.dtd"
   xmlns:inkscape="http://www.inkscape.org/namespaces/inkscape"
   version="1.1"
   id="Capa_1"
   x="0px"
   y="0px"
   viewBox="0 0 187.307 187.307"
   style="enable-background:new 0 0 187.307 187.307;"
   xml:space="preserve"
   inkscape:version="0.91 r13725"
   sodipodi:docname="video-settings (1).svg"><metadata
     id="metadata39"><rdf:RDF><cc:Work
         rdf:about=""><dc:format>image/svg+xml</dc:format><dc:type
           rdf:resource="http://purl.org/dc/dcmitype/StillImage" /></cc:Work></rdf:RDF></metadata><defs
     id="defs37" /><sodipodi:namedview
     pagecolor="#ffffff"
     bordercolor="#666666"
     borderopacity="1"
     objecttolerance="10"
     gridtolerance="10"
     guidetolerance="10"
     inkscape:pageopacity="0"
     inkscape:pageshadow="2"
     inkscape:window-width="1366"
     inkscape:window-height="690"
     id="namedview35"
     showgrid="false"
     inkscape:zoom="1.2599635"
     inkscape:cx="93.653503"
     inkscape:cy="13.369931"
     inkscape:window-x="0"
     inkscape:window-y="23"
     inkscape:window-maximized="1"
     inkscape:current-layer="Capa_1" /><g
     id="g4181"><path
       id="path4169"
       d="m 43.058594,5.0917969 c -1.336206,0 -2.429688,1.093482 -2.429688,2.4296875 l 0,63.9570316 c -7.068414,1.169243 -12.486328,7.298872 -12.486328,14.689453 0,7.390581 5.417907,13.519268 12.486328,14.687501 l 0,78.92969 c 0,1.3362 1.093482,2.42968 2.429688,2.42968 1.335959,0 2.429687,-1.09231 2.429687,-2.42773 l 0,-78.92969 c 7.067517,-1.169248 12.486328,-7.298832 12.486328,-14.689451 0,-7.39062 -5.418811,-13.520205 -12.486328,-14.689453 l 0,-63.9570316 c 0,-1.3362055 -1.093482,-2.4296875 -2.429687,-2.4296875 z m 52.779297,0 c -1.336206,0 -2.429688,1.093482 -2.429688,2.4296875 l 0,118.1679656 c -7.068471,1.16924 -12.488281,7.2988 -12.488281,14.68946 0,7.39065 5.41981,13.52021 12.488281,14.68945 l 0,24.7168 c 0,1.3362 1.093482,2.42968 2.429688,2.42968 1.335959,0 2.429687,-1.09231 2.429687,-2.42773 l 0,-24.71875 c 7.067452,-1.16917 12.486332,-7.29688 12.486332,-14.6875 0,-7.39062 -5.41881,-13.52021 -12.486332,-14.68945 l 0,-118.1699256 c 0,-1.3362055 -1.093482,-2.4296875 -2.429687,-2.4296875 z m 52.777339,0 c -1.3362,0 -2.42968,1.093482 -2.42968,2.4296875 l 0,22.0644536 c -7.06847,1.169239 -12.48828,7.298796 -12.48828,14.689453 0,7.390656 5.41981,13.520214 12.48828,14.689453 l 0,120.820316 c 0,1.3362 1.09348,2.42968 2.42968,2.42968 1.337,0 2.42969,-1.09374 2.42969,-2.42968 l 0,-120.820316 c 7.06735,-1.169487 12.48438,-7.299042 12.48438,-14.689453 0,-7.390545 -5.41699,-13.518325 -12.48438,-14.6875 l 0,-22.0664066 c 0,-1.3362055 -1.09348,-2.4296875 -2.42969,-2.4296875 z m 0,29.1269531 c 5.55026,0 10.05469,4.507279 10.05469,10.056641 0,5.549312 -4.50557,10.058593 -10.05469,10.058593 -5.54912,0 -10.05859,-4.509474 -10.05859,-10.058593 0,-5.54912 4.50938,-10.056641 10.05859,-10.056641 z M 43.058594,76.111328 c 5.549216,0 10.05664,4.507425 10.05664,10.056641 0,5.549216 -4.507328,10.054687 -10.05664,10.054687 -5.549313,0 -10.056641,-4.505471 -10.056641,-10.054687 0,-5.549216 4.507425,-10.056641 10.056641,-10.056641 z m 52.779297,54.210942 c 5.549229,0 10.056639,4.50742 10.056639,10.05664 0,5.54921 -4.50741,10.05664 -10.056639,10.05664 -5.549217,0 -10.058594,-4.50752 -10.058594,-10.05664 0,-5.54912 4.509378,-10.05664 10.058594,-10.05664 z"
       style="stroke-width:0.40000001;stroke-miterlimit:4;stroke-dasharray:none" /></g><g
     id="g5" /><g
     id="g7" /><g
     id="g9" /><g
     id="g11" /><g
     id="g13" /><g
     id="g15" /><g
     id="g17" /><g
     id="g19" /><g
     id="g21" /><g
     id="g23" /><g
     id="g25" /><g
     id="g27" /><g
     id="g29" /><g
     id="g31" /><g
     id="g33" /></svg>