<?xml version="1.0" encoding="UTF-8" standalone="no"?>
<!-- Generator: Adobe Illustrator 19.0.0, SVG Export Plug-In . SVG Version: 6.00 Build 0)  -->

<svg
   xmlns:dc="http://purl.org/dc/elements/1.1/"
   xmlns:cc="http://creativecommons.org/ns#"
   xmlns:rdf="http://www.w3.org/1999/02/22-rdf-syntax-ns#"
   xmlns:svg="http://www.w3.org/2000/svg"
   xmlns="http://www.w3.org/2000/svg"
   xmlns:sodipodi="http://sodipodi.sourceforge.net/DTD/sodipodi-0.dtd"
   xmlns:inkscape="http://www.inkscape.org/namespaces/inkscape"
   version="1.1"
   id="Capa_1"
   x="0px"
   y="0px"
   viewBox="0 0 58 58"
   style="enable-background:new 0 0 58 58;"
   xml:space="preserve"
   inkscape:version="0.91 r13725"
   sodipodi:docname="bullet-list.svg"><metadata
     id="metadata45"><rdf:RDF><cc:Work
         rdf:about=""><dc:format>image/svg+xml</dc:format><dc:type
           rdf:resource="http://purl.org/dc/dcmitype/StillImage" /><dc:title></dc:title></cc:Work></rdf:RDF></metadata><defs
     id="defs43" /><sodipodi:namedview
     pagecolor="#ffffff"
     bordercolor="#666666"
     borderopacity="1"
     objecttolerance="10"
     gridtolerance="10"
     guidetolerance="10"
     inkscape:pageopacity="0"
     inkscape:pageshadow="2"
     inkscape:window-width="1366"
     inkscape:window-height="690"
     id="namedview41"
     showgrid="false"
     showguides="true"
     inkscape:guide-bbox="true"
     inkscape:zoom="5.7543862"
     inkscape:cx="26.608295"
     inkscape:cy="29.570135"
     inkscape:window-x="0"
     inkscape:window-y="23"
     inkscape:window-maximized="1"
     inkscape:current-layer="g3"><sodipodi:guide
       position="29.890243,23.286584"
       orientation="0,1"
       id="guide4173" /><sodipodi:guide
       position="52.134144,67.079265"
       orientation="1,0"
       id="guide4205" /></sodipodi:namedview><g
     id="g3"><path
       d="m 38.154835,10.016313 c -11.910804,0 -29.6187703,0.003 -31.0801623,-0.01133 -1.461391,-0.01429 -1.552214,2.05223 0.04555,2.047632 1.597759,-0.0046 19.8057893,-0.02199 31.0019143,-0.02199 0.0052,0.470861 0.169005,0.934286 0.329494,1.396199 1.266877,3.646179 5.264454,5.581345 8.909688,4.314795 3.645235,-1.266549 5.581673,-5.263509 4.314795,-8.9096864 -1.26688,-3.6461811 -5.264456,-5.5813464 -8.90969,-4.3147968 -2.511708,0.8727006 -3.949012,3.0989014 -4.611589,5.4991772 z M 49.7869,9.4883446 c 0.904865,2.6042784 -0.477718,5.4591974 -3.081997,6.3640624 -2.604278,0.904866 -5.459197,-0.477717 -6.364062,-3.081997 -0.904867,-2.604277 0.477717,-5.4591964 3.081995,-6.3640624 2.604279,-0.9048656 5.459198,0.477718 6.364064,3.081997 z"
       id="path5"
       inkscape:connector-curvature="0"
       sodipodi:nodetypes="czzcsssscsssss" /><path
       d="m 38.23035,27.78307 c -11.910804,0 -29.6187706,0.003 -31.0801626,-0.01133 -1.461391,-0.01429 -1.552214,2.052231 0.04555,2.047633 1.597759,-0.0046 19.8057896,-0.02199 31.0019146,-0.02199 0.0052,0.470861 0.169005,0.934286 0.329494,1.396199 1.266877,3.64618 5.264454,5.581346 8.909688,4.314796 3.645235,-1.266549 5.581673,-5.26351 4.314795,-8.909688 -1.26688,-3.646181 -5.264456,-5.581346 -8.90969,-4.314797 -2.511708,0.872701 -3.949012,3.098902 -4.611589,5.499177 z m 11.632065,-0.527968 c 0.904865,2.604279 -0.477718,5.459199 -3.081997,6.364064 -2.604278,0.904866 -5.459197,-0.477717 -6.364062,-3.081998 -0.904867,-2.604278 0.477717,-5.459197 3.081995,-6.364063 2.604279,-0.904866 5.459198,0.477718 6.364064,3.081997 z"
       id="path5-7"
       inkscape:connector-curvature="0"
       sodipodi:nodetypes="czzcsssscsssss" /><path
       d="m 38.342689,45.550844 c -11.910804,0 -29.6187696,0.003 -31.0801616,-0.01133 -1.461391,-0.01429 -1.552214,2.052231 0.04555,2.047633 1.597759,-0.0046 19.8057886,-0.02199 31.0019136,-0.02199 0.0052,0.470861 0.169005,0.934286 0.329494,1.396199 1.266877,3.646181 5.264454,5.581347 8.909688,4.314797 3.645235,-1.266549 5.581673,-5.263511 4.314795,-8.909689 -1.26688,-3.646181 -5.264456,-5.581346 -8.90969,-4.314797 -2.511708,0.872701 -3.949012,3.098902 -4.611589,5.499177 z m 11.632065,-0.527968 c 0.904865,2.604279 -0.477718,5.4592 -3.081997,6.364065 -2.604278,0.904866 -5.459197,-0.477717 -6.364062,-3.081999 -0.904867,-2.604278 0.477717,-5.459197 3.081995,-6.364063 2.604279,-0.904866 5.459198,0.477718 6.364064,3.081997 z"
       id="path5-7-5"
       inkscape:connector-curvature="0"
       sodipodi:nodetypes="czzcsssscsssss" /></g><g
     id="g11" /><g
     id="g13" /><g
     id="g15" /><g
     id="g17" /><g
     id="g19" /><g
     id="g21" /><g
     id="g23" /><g
     id="g25" /><g
     id="g27" /><g
     id="g29" /><g
     id="g31" /><g
     id="g33" /><g
     id="g35" /><g
     id="g37" /><g
     id="g39" /></svg>